<svg width="34" height="34" viewBox="0 0 34 34" fill="none" xmlns="http://www.w3.org/2000/svg">
<g clip-path="url(#clip0_9_78)">
<path d="M17 0C7.61016 0 0 7.61016 0 17C0 26.3898 7.61016 34 17 34C26.3898 34 34 26.3898 34 17C34 7.61016 26.3898 0 17 0ZM27.6117 27.6051C26.2305 28.9863 24.6301 30.0687 22.8438 30.8191C20.9977 31.6027 19.032 31.9945 17 31.9945C14.9746 31.9945 13.009 31.5961 11.1562 30.8191C9.36992 30.0621 7.76289 28.9797 6.38828 27.6051C5.00703 26.2238 3.92461 24.6234 3.17422 22.8371C2.39063 20.991 1.99219 19.0254 1.99219 17C1.99219 14.9746 2.39062 13.009 3.16758 11.1562C3.92461 9.36992 5.00703 7.76289 6.38164 6.38828C7.76953 5.00703 9.36992 3.92461 11.1562 3.16758C13.009 2.39062 14.9746 1.99219 17 1.99219C19.0254 1.99219 20.991 2.39062 22.8438 3.16758C24.6301 3.92461 26.2371 5.00703 27.6117 6.38164C28.993 7.76289 30.0754 9.36328 30.8258 11.1496C31.6094 12.9957 32.0012 14.9613 32.0012 16.9934C32.0012 19.0187 31.6027 20.9844 30.8258 22.8371C30.0688 24.6234 28.9863 26.2305 27.6117 27.6051Z" fill="black"/>
<path d="M19.2444 11.2027C19.9284 11.2027 20.6589 11.4152 20.6589 11.4152L21.0972 8.8121C21.0972 8.8121 20.1675 8.49335 17.9495 8.49335C16.5882 8.49335 15.7979 9.01132 15.2202 9.77499C14.6757 10.4988 14.6558 11.6609 14.6558 12.4113V14.118H12.896V16.6613H14.6558V25.4933H17.9495V16.6613H20.5593L20.7519 14.118H17.9495V12.1324C17.9495 11.4484 18.5604 11.2027 19.2444 11.2027Z" fill="black"/>
</g>
<defs>
<clipPath id="clip0_9_78">
<rect width="34" height="34" fill="white"/>
</clipPath>
</defs>
</svg>
