<svg width="34" height="34" viewBox="0 0 34 34" fill="none" xmlns="http://www.w3.org/2000/svg">
<g clip-path="url(#clip0_9_74)">
<path d="M17 0C7.61016 0 0 7.61016 0 17C0 26.3898 7.61016 34 17 34C26.3898 34 34 26.3898 34 17C34 7.61016 26.3898 0 17 0ZM27.6117 27.6051C26.2305 28.9863 24.6301 30.0687 22.8438 30.8191C20.9977 31.6027 19.032 31.9945 17 31.9945C14.9746 31.9945 13.009 31.5961 11.1562 30.8191C9.36992 30.0621 7.76289 28.9797 6.38828 27.6051C5.00703 26.2238 3.92461 24.6234 3.17422 22.8371C2.39063 20.991 1.99219 19.0254 1.99219 17C1.99219 14.9746 2.39062 13.009 3.16758 11.1562C3.92461 9.36992 5.00703 7.76289 6.38164 6.38828C7.76953 5.00703 9.36992 3.92461 11.1562 3.16758C13.009 2.39062 14.9746 1.99219 17 1.99219C19.0254 1.99219 20.991 2.39062 22.8438 3.16758C24.6301 3.92461 26.2371 5.00703 27.6117 6.38164C28.993 7.76289 30.0754 9.36328 30.8258 11.1496C31.6094 12.9957 32.0012 14.9613 32.0012 16.9934C32.0012 19.0187 31.6027 20.9844 30.8258 22.8371C30.0688 24.6234 28.9863 26.2305 27.6117 27.6051Z" fill="black"/>
<path d="M22.2195 8.5H11.7937C9.98081 8.5 8.50659 9.97422 8.50659 11.7871V15.2602V22.2195C8.50659 24.0324 9.98081 25.5066 11.7937 25.5066H22.2195C24.0324 25.5066 25.5066 24.0324 25.5066 22.2195V15.2535V11.7805C25.5 9.97422 24.0257 8.5 22.2195 8.5ZM23.1625 10.459H23.541V10.8309V13.341L20.6656 13.3477L20.6589 10.4656L23.1625 10.459ZM14.5761 15.2535C15.1207 14.5031 16.0039 14.0051 17 14.0051C17.996 14.0051 18.8792 14.4965 19.4238 15.2535C19.7824 15.7449 19.9882 16.3492 19.9882 17C19.9882 18.6469 18.6468 19.9949 16.9933 19.9949C15.3398 19.9949 14.0117 18.6469 14.0117 17C14.0117 16.3492 14.2242 15.7449 14.5761 15.2535ZM23.8464 22.2129C23.8464 23.1094 23.116 23.8398 22.2195 23.8398H11.7937C10.8972 23.8398 10.1667 23.1094 10.1667 22.2129V15.2535H12.7035C12.4843 15.7914 12.3582 16.3824 12.3582 17C12.3582 19.5633 14.4433 21.6484 17.0066 21.6484C19.5699 21.6484 21.655 19.5633 21.655 17C21.655 16.3824 21.5289 15.7914 21.3097 15.2535H23.8464V22.2129Z" fill="black"/>
</g>
<defs>
<clipPath id="clip0_9_74">
<rect width="34" height="34" fill="white"/>
</clipPath>
</defs>
</svg>
